<svg width="120" height="120" viewBox="0 0 120 120" fill="none" xmlns="http://www.w3.org/2000/svg">
<rect x="1.5" y="1.5" width="117" height="117" rx="10.5" stroke="#C7AB65" stroke-width="3"/>
<rect x="15.5" y="11.5" width="92" height="97" rx="10.5" stroke="#C7AB65" stroke-width="3"/>
<rect x="11.5" y="30.5" width="6" height="19" rx="3" fill="#DCC97E" stroke="#C7AB65"/>
<rect x="94.5" y="42.5" width="6" height="34" rx="3" fill="#DCC97E" stroke="#C7AB65"/>
<rect x="11.5" y="74.5" width="6" height="19" rx="3" fill="#DCC97E" stroke="#C7AB65"/>
<circle cx="56" cy="60" r="28.5" stroke="#C7AB65" stroke-width="3"/>
<circle cx="56" cy="60" r="23.5" stroke="#C7AB65"/>
<line x1="56.5" y1="30" x2="56.5" y2="36" stroke="#C7AB65"/>
<line y1="-0.5" x2="6" y2="-0.5" transform="matrix(1 0 0 -1 26 60)" stroke="#C7AB65"/>
<line x1="70.6464" y1="41.6464" x2="74.6464" y2="37.6464" stroke="#C7AB65"/>
<line y1="-0.5" x2="5.65685" y2="-0.5" transform="matrix(0.707107 0.707107 0.707107 -0.707107 72 77)" stroke="#C7AB65"/>
<line y1="-0.5" x2="5.65685" y2="-0.5" transform="matrix(-0.707107 0.707107 0.707107 0.707107 38 75)" stroke="#C7AB65"/>
<line x1="38.6464" y1="44.3536" x2="34.6464" y2="40.3536" stroke="#C7AB65"/>
<line x1="80" y1="59.5" x2="86" y2="59.5" stroke="#C7AB65"/>
<line y1="-0.5" x2="6" y2="-0.5" transform="matrix(-4.37114e-08 1 1 4.37114e-08 56 84)" stroke="#C7AB65"/>
<line x1="68" y1="75.5" x2="44" y2="75.5" stroke="#F0E493"/>
<path d="M43.8756 76L56 55L68.1244 76H43.8756Z" stroke="#C7AB65"/>
<path d="M43.8756 43L56 64L68.1244 43H43.8756Z" fill="#F0E493" stroke="#C7AB65"/>
<line x1="56" y1="60" x2="56" y2="75" stroke="#F0E493" stroke-width="2"/>
</svg>
