<svg width="120" height="120" viewBox="0 0 120 120" fill="none" xmlns="http://www.w3.org/2000/svg">
<path d="M104.5 55.5C104.5 81.9955 82.8001 103.5 56 103.5C29.1999 103.5 7.5 81.9955 7.5 55.5C7.5 29.0045 29.1999 7.5 56 7.5C82.8001 7.5 104.5 29.0045 104.5 55.5Z" stroke="#DCC97E" stroke-width="3"/>
<line y1="-1.5" x2="5.82817" y2="-1.5" transform="matrix(0.604033 0.796959 -0.803011 0.595964 20.7755 12.897)" stroke="#DCC97E" stroke-width="3"/>
<line y1="-1.5" x2="6.99604" y2="-1.5" transform="matrix(0.628694 0.777653 -0.784057 0.620689 28.9898 7.09106)" stroke="#DCC97E" stroke-width="3"/>
<line y1="-1.5" x2="6.41099" y2="-1.5" transform="matrix(0.604033 0.796959 -0.803011 0.595964 39 5)" stroke="#DCC97E" stroke-width="3"/>
<path d="M49.5 1.5L54.7249 7.75086" stroke="#DCC97E" stroke-width="3"/>
<path d="M60.5 2.5L65 8.00001" stroke="#DCC97E" stroke-width="3"/>
<path d="M69.5 5L74 11" stroke="#DCC97E" stroke-width="3"/>
<line y1="-1.5" x2="6.99604" y2="-1.5" transform="matrix(0.628694 0.777653 -0.784057 0.620689 13.7347 19.8643)" stroke="#DCC97E" stroke-width="3"/>
<line y1="-1.5" x2="7.46608" y2="-1.5" transform="matrix(0.628694 0.777653 -0.784057 0.620689 7.86731 27.9927)" stroke="#DCC97E" stroke-width="3"/>
<line y1="-1.5" x2="6.99604" y2="-1.5" transform="matrix(0.628694 0.777653 -0.784057 0.620689 4.34692 37.2823)" stroke="#DCC97E" stroke-width="3"/>
<line y1="-1.5" x2="6.60354" y2="-1.5" transform="matrix(0.710812 0.703382 -0.710812 0.703382 2 47.7332)" stroke="#DCC97E" stroke-width="3"/>
<line y1="-1.5" x2="5.84349" y2="-1.5" transform="matrix(0.784057 0.620689 -0.628694 0.777653 3.17346 60.5064)" stroke="#DCC97E" stroke-width="3"/>
<line y1="-1.5" x2="2.93062" y2="-1.5" transform="matrix(0.949671 0.313248 -0.319229 0.947678 6.69385 70.9573)" stroke="#DCC97E" stroke-width="3"/>
<line y1="-3.5" x2="30.4901" y2="-3.5" transform="matrix(0.698872 0.715247 -0.698872 0.715247 27.8163 53.7942)" stroke="#DCC97E" stroke-width="7"/>
<line y1="-3.5" x2="55.4366" y2="-3.5" transform="matrix(0.698872 -0.715247 0.698872 0.715247 50.0937 74.6108)" stroke="#DCC97E" stroke-width="7"/>
<path d="M69.6715 115.91L53.5763 96.4097C52.6611 95.301 52.6611 93.699 53.5763 92.5903L69.6715 73.0903C70.2414 72.3998 71.0899 72 71.9852 72L114 72C115.657 72 117 73.3431 117 75L117 114C117 115.657 115.657 117 114 117L71.9852 117C71.0899 117 70.2414 116.6 69.6715 115.91Z" fill="#F0E493" stroke="#C7AB65" stroke-width="3"/>
<path d="M66.5 94.5C66.5 96.7661 64.8793 98.5 63 98.5C61.1207 98.5 59.5 96.7661 59.5 94.5C59.5 92.2339 61.1207 90.5 63 90.5C64.8793 90.5 66.5 92.2339 66.5 94.5Z" fill="black" stroke="#C7AB65"/>
<path d="M22.114 90C19.5702 88.1929 10.7909 77.2491 6.99195 70.2858C5.40086 66.079 4.45656 63.4997 3.50208 56.9498C2.80744 51.3801 2.85833 48.4885 3.50208 43.6137C4.5734 37.9341 5.45992 34.1087 8.7368 27.9582C12.5399 20.7074 15.2514 17.8939 20.9506 12.8827C27.6729 7.7217 31.7147 5.59649 39.5624 3.60544C45.6172 1.96053 50.261 1.59032 59.3375 2.44565C65.1159 3.30022 67.7308 4.09383 73.2962 6.50459C80.6852 10.5718 85.4291 16.8295 89.5 20.5" stroke="#DCC97E" stroke-width="3"/>
<rect x="77.5" y="79.5" width="31" height="32" rx="1.5" fill="#F5F5F5" stroke="#C7AB65" stroke-width="3"/>
</svg>
