<svg width="120" height="120" viewBox="0 0 120 120" fill="none" xmlns="http://www.w3.org/2000/svg">
<rect y="102.353" width="12.4141" height="17.6471" fill="#F0E493"/>
<rect x="24.8283" y="84.7059" width="12.4141" height="35.2941" fill="#EADE8E"/>
<rect x="49.6566" y="65.8823" width="12.4141" height="54.1176" fill="#DCC97E"/>
<rect x="74.4849" y="48.2353" width="12.4141" height="71.7647" fill="#D4C074"/>
<rect x="99.3132" y="29.4117" width="12.4141" height="90.5882" fill="#C7AB65"/>
<line y1="-0.5" x2="124.629" y2="-0.5" transform="matrix(-0.796872 0.604148 -0.645055 -0.764136 99.3132 17.647)" stroke="#DCC97E"/>
<path d="M85.8019 26.3412L88.3928 29.4799L87.4982 32.2515L82.5757 26.288L85.8019 26.3412Z" fill="#C7AB65"/>
<path d="M88.4147 16.0129L93.2582 17.3827L88.1092 21.4258L83.7757 18.1035L88.4147 16.0129Z" fill="#DCC97E"/>
<path d="M99.037 28.8815L98.6989 23.974L93.5499 28.017L95.9525 32.8553L99.037 28.8815Z" fill="#DCC97E"/>
<path d="M105.789 18.049C99.2871 26.5676 89.0813 31.8669 85.9107 28.425C82.7401 24.983 90.9934 16.3398 99.9903 11.7544C106.391 9.97238 111.103 7.30485 111.909 7.81108C112.385 8.66312 108.938 12.5512 105.789 18.049Z" fill="#C7AB65"/>
<path d="M91.1034 25.2823L96.056 20.3588L90.067 24.0268L89.6198 25.4126L91.1034 25.2823Z" fill="#DCC97E"/>
<ellipse cx="2.84891" cy="2.86414" rx="2.84891" ry="2.86414" transform="matrix(0.636589 0.771203 -0.786512 0.617574 101.322 12.6026)" fill="url(#paint0_linear_15_33)"/>
<path d="M112.79 7.21904L111.274 10.2015L109.479 8.02693L112.79 7.21904Z" fill="#DCC97E"/>
<defs>
<linearGradient id="paint0_linear_15_33" x1="0" y1="2.86414" x2="5.69781" y2="2.86414" gradientUnits="userSpaceOnUse">
<stop stop-color="#DCC97E"/>
<stop offset="1" stop-color="#EADE8E"/>
</linearGradient>
</defs>
</svg>
