<svg width="120" height="120" viewBox="0 0 120 120" fill="none" xmlns="http://www.w3.org/2000/svg">
<rect y="102.353" width="12.1078" height="17.6471" fill="#F0E493"/>
<rect x="24.2155" y="84.7059" width="12.1078" height="35.2941" fill="#EADE8E"/>
<rect x="48.431" y="65.8823" width="12.1078" height="54.1176" fill="#DCC97E"/>
<rect x="72.6465" y="48.2353" width="12.1078" height="71.7647" fill="#D4C074"/>
<rect x="96.8621" y="29.4117" width="12.1078" height="90.5882" fill="#C7AB65"/>
<line y1="-0.5" x2="122.684" y2="-0.5" transform="matrix(-0.789522 0.613722 -0.635614 -0.772007 96.8621 17.647)" stroke="#DCC97E"/>
<path d="M107.322 5.41943C111.337 6.22621 113.174 5.48339 116.698 5.06268C114.982 8.16414 113.544 9.05232 113.004 12.8911L111.537 10.866C108.955 14.033 106.987 15.0914 103.188 16.5786L103.463 19.4198L101.274 22.4318L100.036 19.4924L98.8849 18.7655L97.9995 20.1286L95.4312 16.5848L97.0504 16.2341L96.7341 14.936L94.3032 12.8127L97.9592 11.8258L100.441 13.1572C103.257 10.4362 104.92 9.00241 108.79 7.4445L107.322 5.41943Z" fill="#C7AB65"/>
</svg>
