<svg width="121" height="122" viewBox="0 0 121 122" fill="none" xmlns="http://www.w3.org/2000/svg">
<path d="M108.5 56.5C108.5 84.6575 85.2279 107.5 56.5 107.5C27.7721 107.5 4.5 84.6575 4.5 56.5C4.5 28.3425 27.7721 5.5 56.5 5.5C85.2279 5.5 108.5 28.3425 108.5 56.5Z" stroke="#DCC97E"/>
<line y1="-0.5" x2="6.08157" y2="-0.5" transform="matrix(0.604033 0.796959 -0.803011 0.595964 19.5918 12.3708)" stroke="#DCC97E"/>
<line y1="-0.5" x2="7.30021" y2="-0.5" transform="matrix(0.628694 0.777653 -0.784057 0.620689 28.1633 6.31244)" stroke="#DCC97E"/>
<line y1="-0.5" x2="6.68973" y2="-0.5" transform="matrix(0.604033 0.796959 -0.803011 0.595964 37.9592 2.67731)" stroke="#DCC97E"/>
<line y1="-0.5" x2="6.08157" y2="-0.5" transform="matrix(0.604033 0.796959 -0.803011 0.595964 48.9796 1.46564)" stroke="#DCC97E"/>
<line y1="-0.5" x2="6.08157" y2="-0.5" transform="matrix(0.604033 0.796959 -0.803011 0.595964 58.7755 1.46564)" stroke="#DCC97E"/>
<line y1="-0.5" x2="5.83831" y2="-0.5" transform="matrix(0.604033 0.796959 -0.803011 0.595964 68.5714 3.88904)" stroke="#DCC97E"/>
<line y1="-0.5" x2="7.30021" y2="-0.5" transform="matrix(0.628694 0.777653 -0.784057 0.620689 12.2449 19.641)" stroke="#DCC97E"/>
<line y1="-0.5" x2="7.79069" y2="-0.5" transform="matrix(0.628694 0.777653 -0.784057 0.620689 6.12244 28.1229)" stroke="#DCC97E"/>
<line y1="-0.5" x2="7.30021" y2="-0.5" transform="matrix(0.628694 0.777653 -0.784057 0.620689 2.44897 37.8163)" stroke="#DCC97E"/>
<line y1="-0.5" x2="6.89066" y2="-0.5" transform="matrix(0.710812 0.703382 -0.710812 0.703382 0 48.7216)" stroke="#DCC97E"/>
<line y1="-0.5" x2="6.09756" y2="-0.5" transform="matrix(0.784057 0.620689 -0.628694 0.777653 1.22449 62.0502)" stroke="#DCC97E"/>
<line y1="-0.5" x2="3.05804" y2="-0.5" transform="matrix(0.949671 0.313248 -0.319229 0.947678 4.89795 72.9554)" stroke="#DCC97E"/>
<line y1="-2.5" x2="31.8158" y2="-2.5" transform="matrix(0.698872 0.715247 -0.698872 0.715247 26.9387 55.0461)" stroke="#DCC97E" stroke-width="5"/>
<line y1="-2.5" x2="57.8469" y2="-2.5" transform="matrix(0.698872 -0.715247 0.698872 0.715247 50.1847 76.7678)" stroke="#DCC97E" stroke-width="5"/>
<path d="M70.5287 119.912L53.5804 99.4116C52.6632 98.3022 52.6632 96.6978 53.5804 95.5884L70.5287 75.0884C71.0986 74.3991 71.9464 74 72.8408 74L117 74C118.657 74 120 75.3431 120 77L120 118C120 119.657 118.657 121 117 121L72.8408 121C71.9464 121 71.0986 120.601 70.5287 119.912Z" fill="#F0E493" stroke="#C7AB65"/>
<circle cx="63.5" cy="97.5" r="4" fill="black" stroke="#C7AB65"/>
<path d="M21.003 93C18.3409 91.1107 9.15324 79.6696 5.17762 72.3897C3.51253 67.9916 2.52431 65.2952 1.52544 58.4475C0.798479 52.6247 0.851736 49.6016 1.52544 44.5052C2.64658 38.5674 3.57433 34.5682 7.00363 28.1381C10.9836 20.5577 13.8212 17.6163 19.7855 12.3774C26.8205 6.98176 31.0502 4.75994 39.2629 2.67839C45.5994 0.958711 50.4592 0.571675 59.9579 1.46589C66.005 2.3593 68.7415 3.18898 74.5658 5.70932C82.2984 9.96143 86.7398 14.6019 91 18.4392" stroke="#DCC97E"/>
<rect x="77.5" y="80.5" width="35" height="36" rx="2.5" fill="#F5F5F5" stroke="#C7AB65"/>
</svg>
