<svg width="620" height="620" viewBox="0 0 620 620" fill="none" xmlns="http://www.w3.org/2000/svg">
<rect width="620" height="620" rx="310" fill="black"/>
<g clip-path="url(#clip0_817_1257)">
<path d="M353.473 128H266.505C256.487 128 247.36 133.727 243.014 142.73L198.552 234.843C192.989 246.363 201.399 259.726 214.22 259.726H274.22C282.564 259.726 290.17 254.953 293.799 247.447L309.989 213.908L392.937 385.725L280.869 304.763C276.414 301.552 271.069 299.817 265.571 299.817H183.536C173.518 299.817 164.391 305.544 160.044 314.547L105.738 427.117C100.175 438.636 108.585 452 121.406 452H181.406C189.751 452 197.357 447.227 200.986 439.721L245.078 348.389L366.555 440.654C376.247 448.008 388.069 452 400.238 452H498.593C511.415 452 519.824 438.636 514.261 427.117L376.964 142.73C372.618 133.727 363.491 128 353.473 128Z" fill="#D7FE51"/>
</g>
<defs>
<clipPath id="clip0_817_1257">
<rect width="412" height="324" fill="white" transform="translate(104 128)"/>
</clipPath>
</defs>
</svg>
