<svg width="121" height="180" viewBox="0 0 121 180" fill="none" xmlns="http://www.w3.org/2000/svg">
<g clip-path="url(#clip0_81_194)">
<path d="M71.5544 148.802L49.6976 148.549C47.0941 148.528 44.9525 150.61 44.9315 153.217L44.8055 164.149C44.7005 172.81 51.6292 179.895 60.2796 180C68.9299 180.105 76.0056 173.167 76.1105 164.506L76.2365 153.574C76.2575 150.967 74.1789 148.823 71.5754 148.802H71.5544Z" fill="#5D43EF"/>
<path d="M57.5081 0.0631788C27.0429 1.55582 1.91068 26.4472 0.105022 56.9307C-0.986771 75.3049 6.19387 92.1024 18.3086 103.917H18.3506L18.5395 104.149L22.6967 107.786L40.2074 123.154C42.097 124.814 44.5116 125.718 47.0311 125.718H73.948C76.4675 125.718 78.8821 124.814 80.7717 123.154L98.9122 107.239L99.4581 106.756L101.789 104.695L101.915 104.611C113.651 93.532 120.979 77.8908 120.979 60.5467C121 26.1739 92.1935 -1.61867 57.5081 0.0631788ZM60.5105 32.2286C76.0896 32.2286 88.7922 44.9476 88.7922 60.5677C88.7922 76.1879 76.0896 88.8859 60.5105 88.8859C44.9315 88.8859 32.2289 76.1669 32.2289 60.5677C32.2289 44.9686 44.9315 32.2286 60.5105 32.2286Z" fill="#5D43EF"/>
</g>
<defs>
<clipPath id="clip0_81_194">
<rect width="121" height="180" fill="white"/>
</clipPath>
</defs>
</svg>
